<?xml version="1.0" encoding="utf-8"?>
<svg  width="179px" height="244px" viewBox="0 0 179 244" version="1.1" xmlns:xlink="http://www.w3.org/1999/xlink" xmlns="http://www.w3.org/2000/svg">
  <g id="Group-19">
    <path  d="M136.072 181.067C137.44 184.557 138.938 189.324 140.565 195.369C143.56 206.691 146.42 214.054 149.144 217.459C151.868 220.864 154.975 222.567 158.466 222.567C161.7 222.567 164.488 220.748 166.829 217.11C169.17 213.472 170.426 207.417 170.596 198.944L178.258 198.944C178.173 214.311 175.193 225.623 169.319 232.879C163.446 240.135 155.784 243.764 146.335 243.764C137.567 243.764 130.437 240.252 124.946 233.229C119.456 226.206 115.817 212.735 114.029 192.815C109.262 194.007 104.665 194.9 100.238 195.496C95.8114 196.092 91.5976 196.39 87.5966 196.39C71.7628 196.39 57.1421 192.283 43.7345 184.068C30.3268 175.853 19.6858 164.063 11.8115 148.697C3.93716 133.332 -1.48451e-06 115.987 0 96.6627C0 69.2515 8.89587 45.8414 26.6876 26.4322C42.8619 8.81074 62.9521 0 86.9582 0C103.047 0 117.732 4.06486 131.012 12.1946C144.292 20.3243 154.933 31.9868 162.935 47.1821C170.937 62.3775 174.938 79.3818 174.938 98.195C174.938 115.391 171.805 130.714 165.541 144.164C159.276 157.614 149.453 169.915 136.072 181.067L136.072 181.067ZM129.735 163.446C134.332 154.769 137.694 145.37 139.823 135.249C141.951 125.127 143.015 112.454 143.015 97.2294C143.015 75.7944 140.674 58.8467 135.992 46.3861C131.31 33.9255 124.712 24.718 116.2 18.7637C107.687 12.8094 98.0673 9.83228 87.3412 9.83228C76.7854 9.83228 67.3149 12.8094 58.9298 18.7637C50.5447 24.718 43.9898 34.0109 39.2652 46.6424C34.5406 59.274 32.1783 76.4342 32.1783 98.1232C32.1783 113.434 33.583 126.576 36.3922 137.549C39.2014 148.522 43.5855 158.942 49.5444 168.809C49.3742 164.903 49.2891 161.762 49.2891 159.385C49.2891 148.859 52.6729 140.2 59.4406 133.409C66.2082 126.618 75.0828 123.223 86.0643 123.223C97.1309 123.223 106.41 126.914 113.901 134.296C119.52 139.897 124.797 149.614 129.735 163.446L129.735 163.446ZM114.029 179.662C113.859 164.339 111.858 153.23 108.027 146.335C103.175 137.482 95.7264 133.055 85.6813 133.055C77.6793 133.055 71.1244 135.609 66.0167 140.716C60.9091 145.824 58.3552 152.422 58.3552 160.509C58.3552 168.511 61.505 176.087 67.8044 183.238C73.8485 185.877 80.1905 187.196 86.8305 187.196C91.9382 187.196 96.7479 186.558 101.26 185.281C105.771 184.004 110.028 182.131 114.029 179.662L114.029 179.662Z" id="Q" fill="#AFCB23" stroke="none" />
    <g id="Group-17" transform="translate(68.962036 32.012634)">
      <g id="Group-4">
        <path  d="M1.94621 0L74.9898 0L76.7535 33.9978L72.557 33.9978C69.7936 14.0086 62.5605 4.01405 50.858 4.01405C48.5012 4.01405 46.886 4.41951 46.0124 5.23043C45.1387 6.04135 44.7019 7.37937 44.7019 9.24448L44.7019 81.1325C44.7019 82.5921 45.1277 83.6666 45.9791 84.3559C46.8306 85.0452 48.2294 85.3898 50.1756 85.3898L59.2377 85.3898L59.2377 89.9512L17.455 89.9512L17.455 85.3898L27.7943 85.3898C29.1728 85.3898 30.227 85.0452 30.9569 84.3559C31.6867 83.6666 32.0516 82.7543 32.0516 81.619L32.0516 8.69711C32.0516 7.15637 31.5853 5.99067 30.6528 5.20002C29.7202 4.40937 28.22 4.01405 26.1522 4.01405C20.273 4.01405 15.3669 6.79145 11.434 12.3462C8.19029 16.9279 5.85889 24.1451 4.43978 33.9978L0 33.9978L1.94621 0Z" id="T" fill="#FF8000" fill-rule="evenodd" stroke="none" />
      </g>
    </g>
    <g id="Group-18" transform="translate(33.239746 99.66382)">
      <path d="M0 0L47.8603 0L47.8603 5.26323L39.6497 5.26323C36.0005 5.26323 33.6964 5.71938 32.7373 6.63167C31.7782 7.54397 31.2987 9.47382 31.2987 12.4212L31.2987 91.0188C31.2987 94.1534 31.7197 96.1183 32.5619 96.9137C33.6847 97.9897 35.7198 98.5277 38.6672 98.5277L47.8603 98.5277L47.8603 103.791L0 103.791L0 98.5277L9.05276 98.5277C12.2341 98.5277 14.2926 98.0599 15.2283 97.1242C16.164 96.1885 16.6318 94.1534 16.6318 91.0188L16.6318 12.4212C16.6318 9.42703 16.2108 7.57905 15.3686 6.87729C14.0587 5.80126 11.6493 5.26324 8.14047 5.26323L0 5.26323L0 0Z" id="I" fill="#FF8000" fill-rule="evenodd" stroke="none" />
    </g>
  </g>
</svg>